<svg width="24" height="24" viewBox="0 0 24 24" fill="none" xmlns="http://www.w3.org/2000/svg">
<g clip-path="url(#clip0_26_451)">
<path d="M1.93091 17.9369V9.81185L4.11841 3.56185H7.38924V1.64519H12.5142V3.56185H15.7851L17.9726 9.81185V17.9369H14.8684V16.3119H5.03507V17.9369H1.93091ZM5.11841 8.37435H14.7851L13.9934 6.08269H5.91007L5.11841 8.37435ZM6.36841 13.0619C6.70174 13.0619 6.98646 12.9438 7.22258 12.7077C7.45869 12.4716 7.57674 12.1869 7.57674 11.8535C7.57674 11.5202 7.45869 11.2355 7.22258 10.9994C6.98646 10.7632 6.70174 10.6452 6.36841 10.6452C6.03507 10.6452 5.75035 10.7632 5.51424 10.9994C5.27813 11.2355 5.16007 11.5202 5.16007 11.8535C5.16007 12.1869 5.27813 12.4716 5.51424 12.7077C5.75035 12.9438 6.03507 13.0619 6.36841 13.0619ZM13.5351 13.0619C13.8684 13.0619 14.1531 12.9438 14.3892 12.7077C14.6254 12.4716 14.7434 12.1869 14.7434 11.8535C14.7434 11.5202 14.6254 11.2355 14.3892 10.9994C14.1531 10.7632 13.8684 10.6452 13.5351 10.6452C13.2017 10.6452 12.917 10.7632 12.6809 10.9994C12.4448 11.2355 12.3267 11.5202 12.3267 11.8535C12.3267 12.1869 12.4448 12.4716 12.6809 12.7077C12.917 12.9438 13.2017 13.0619 13.5351 13.0619Z" fill="#5B8C51"/>
</g>
<defs>
<clipPath id="clip0_26_451">
<rect width="24" height="24" fill="white"/>
</clipPath>
</defs>
</svg>
