<svg width="25" height="24" viewBox="0 0 25 24" fill="none" xmlns="http://www.w3.org/2000/svg">
<path d="M17.2527 19.4419H6.92349C6.46197 19.4419 5.94551 19.0944 5.79167 18.6732L1.24244 6.47923C0.594135 4.73122 1.35234 4.19418 2.9127 5.26826L7.1982 8.20618C7.91245 8.68004 8.7256 8.43785 9.03328 7.66914L10.9673 2.73048C11.5827 1.15096 12.6046 1.15096 13.2199 2.73048L15.1539 7.66914C15.4616 8.43785 16.2747 8.68004 16.978 8.20618L20.9998 5.4578C22.714 4.27842 23.5381 4.87864 22.8349 6.78461L18.3955 18.6943C18.2307 19.0944 17.7142 19.4419 17.2527 19.4419Z" stroke="#5B8C51" stroke-width="2" stroke-linecap="round" stroke-linejoin="round"/>
<path d="M6.04443 22.6223H18.1318" stroke="#5B8C51" stroke-width="2" stroke-linecap="round" stroke-linejoin="round"/>
<path d="M9.34097 14.1982H14.8352" stroke="#5B8C51" stroke-width="2" stroke-linecap="round" stroke-linejoin="round"/>
</svg>
