<svg width="26" height="25" viewBox="0 0 26 25" fill="none" xmlns="http://www.w3.org/2000/svg">
<path d="M15.7343 6.67811C15.7343 5.65288 14.9141 4.8327 13.8889 4.8327C13.7864 4.8327 13.718 4.90105 13.718 5.00357C13.718 5.1061 13.7864 5.17445 13.8889 5.17445C14.7091 5.17445 15.3926 5.85793 15.3926 6.67811C15.3926 6.78064 15.4609 6.84898 15.5634 6.84898C15.666 6.84898 15.7343 6.74646 15.7343 6.67811Z" fill="#5B8C51"/>
<path d="M19.5277 6.40469C19.391 3.49988 17.0329 1.10768 14.1281 1.00516C10.8816 0.868463 8.21597 3.46571 8.21597 6.67809C8.21597 7.49827 8.38684 8.2501 8.69441 8.93359C8.79694 9.13863 11.4284 13.9914 12.8978 16.6911C13.3079 17.4771 14.4357 17.4771 14.8458 16.6911C15.6318 15.2558 16.7254 13.2054 17.6139 11.5992C17.6481 11.5308 17.6481 11.4625 17.5797 11.4283L16.2469 10.0955C16.2127 10.0613 16.2127 9.99299 16.2469 9.95881L17.1355 9.07028C17.1696 9.03611 17.238 9.03611 17.2722 9.07028L18.229 10.0272C18.2974 10.0955 18.4341 10.0955 18.4683 9.99299C18.7758 9.41203 18.9809 9.00194 19.015 8.96776C19.391 8.14758 19.5618 7.3274 19.5277 6.40469ZM13.8889 9.13863C12.5219 9.13863 11.4284 8.04506 11.4284 6.67809C11.4284 5.31112 12.5219 4.21754 13.8889 4.21754C15.2559 4.21754 16.3494 5.31112 16.3494 6.67809C16.3494 8.04506 15.2559 9.13863 13.8889 9.13863ZM15.9735 9.75377L15.7001 9.48037C15.5293 9.3095 15.5293 9.00194 15.7001 8.83106L16.0761 8.45515C16.2469 8.28428 16.5545 8.28428 16.7254 8.45515L16.9988 8.72854C17.0329 8.76271 17.0329 8.83106 16.9988 8.86524L16.1102 9.75377C16.0761 9.78794 16.0077 9.78794 15.9735 9.75377Z" fill="#5B8C51"/>
<path d="M14 18.7678C15.1046 18.7678 16 18.5439 16 18.2678C16 17.9916 15.1046 17.7678 14 17.7678C12.8954 17.7678 12 17.9916 12 18.2678C12 18.5439 12.8954 18.7678 14 18.7678Z" fill="#5B8C51"/>
<path d="M25.9866 24.3254L21.4756 13.4353C21.4414 13.3332 21.3731 13.2651 21.2705 13.2651L17.9556 12.4824C17.8873 12.4824 17.8531 12.4824 17.8189 12.5505C17.7506 12.6526 17.7164 12.7547 17.6481 12.8568C17.6139 12.9248 17.6481 13.0269 17.7164 13.061L20.9972 13.8437L25.1664 23.917L19.015 21.2625L17.1013 14.3882C17.0671 14.2861 16.9304 14.2521 16.8621 14.3541C16.7937 14.4903 16.6912 14.6264 16.6228 14.7966C16.6228 14.8306 16.5887 14.8646 16.6228 14.8987L18.3999 21.2966L9.24121 24.0531L10.4715 20.2076L11.7359 16.1238C11.7701 15.9877 11.7701 15.8175 11.7018 15.7154C11.5992 15.5452 11.4967 15.3751 11.4284 15.2049L10.7449 17.3829L8.55772 24.0531L0.731815 21.2966L6.37057 12.4484L11.36 15.1709C11.1891 14.8987 11.0524 14.5924 10.9157 14.3541C10.8816 14.2521 10.779 14.184 10.7107 14.15L6.40474 11.8018C6.26805 11.7337 6.09717 11.7678 5.99465 11.9039L0.0483298 21.2966C0.0141555 21.3646 -0.0200188 21.4667 0.0141554 21.5688C0.0483297 21.6709 0.116678 21.739 0.185027 21.739L8.66024 24.7337H8.69442C8.69442 24.7337 8.69442 24.7337 8.72859 24.7337C8.76277 24.7337 8.76277 24.7337 8.79694 24.7337C8.83111 24.7337 8.83112 24.7337 8.86529 24.7337L18.7417 21.773L25.6107 24.7337C25.6449 24.7337 25.679 24.7678 25.7132 24.7678C25.7815 24.7678 25.8499 24.7337 25.9182 24.6657C25.9866 24.5636 26.0208 24.4274 25.9866 24.3254Z" fill="#5B8C51"/>
</svg>
