<svg width="27" height="24" viewBox="0 0 27 24" fill="none" xmlns="http://www.w3.org/2000/svg">
<path d="M17.155 12.3H21.955" stroke="#5B8C51" stroke-width="1.5" stroke-linecap="round" stroke-linejoin="round"/>
<path d="M19.555 23.1H7.55499C2.75499 23.1 1.55499 21.9 1.55499 17.1V7.5C1.55499 2.7 2.75499 1.5 7.55499 1.5H19.555C24.355 1.5 25.555 2.7 25.555 7.5V17.1C25.555 21.9 24.355 23.1 19.555 23.1Z" stroke="#5B8C51" stroke-width="1.5" stroke-linecap="round" stroke-linejoin="round"/>
<path d="M15.955 7.5H21.955" stroke="#5B8C51" stroke-width="1.5" stroke-linecap="round" stroke-linejoin="round"/>
<path d="M19.555 17.1H21.955" stroke="#5B8C51" stroke-width="1.5" stroke-linecap="round" stroke-linejoin="round"/>
<path d="M9.35492 11.4479C10.5545 11.4479 11.5269 10.4755 11.5269 9.27588C11.5269 8.07633 10.5545 7.10388 9.35492 7.10388C8.15537 7.10388 7.18292 8.07633 7.18292 9.27588C7.18292 10.4755 8.15537 11.4479 9.35492 11.4479Z" stroke="#5B8C51" stroke-width="1.5" stroke-linecap="round" stroke-linejoin="round"/>
<path d="M13.555 17.4958C13.387 15.7558 12.007 14.3878 10.267 14.2318C9.667 14.1718 9.055 14.1718 8.443 14.2318C6.703 14.3998 5.323 15.7558 5.155 17.4958" stroke="#5B8C51" stroke-width="1.5" stroke-linecap="round" stroke-linejoin="round"/>
</svg>
