<svg width="12" height="12" viewBox="0 0 12 12" fill="none" xmlns="http://www.w3.org/2000/svg">
<path d="M5.66 11.28C5.48667 11.28 5.28667 11.26 5.06 11.22C4.84667 11.18 4.65333 11.12 4.48 11.04C4.62667 10.48 4.73333 9.90667 4.8 9.32C4.88 8.73333 4.92667 8.09333 4.94 7.4C4.59333 7.44 4.29333 7.46667 4.04 7.48C3.8 7.49333 3.55333 7.5 3.3 7.5C2.71333 7.5 2.24 7.43333 1.88 7.3C1.53333 7.15333 1.28 6.92667 1.12 6.62C0.973333 6.3 0.9 5.88 0.9 5.36C0.9 5.2 0.913333 5.02667 0.94 4.84C0.98 4.65333 1.02 4.48 1.06 4.32C1.55333 4.41333 2.00667 4.48 2.42 4.52C2.83333 4.56 3.3 4.58 3.82 4.58C4.07333 4.58 4.28667 4.57333 4.46 4.56C4.63333 4.54667 4.78667 4.53333 4.92 4.52C4.92 4.13333 4.92667 3.8 4.94 3.52C4.95333 3.22667 4.97333 2.95333 5 2.7C5.05333 1.88667 5.23333 1.32 5.54 1C5.84667 0.666667 6.37333 0.493333 7.12 0.479999C7.44 0.479999 7.68 0.499999 7.84 0.539999C8.01333 0.566666 8.16667 0.606666 8.3 0.659999C8.15333 1.19333 8.04 1.75333 7.96 2.34C7.89333 2.92667 7.85333 3.59333 7.84 4.34C8.17333 4.3 8.46667 4.27333 8.72 4.26C8.97333 4.24667 9.23333 4.24 9.5 4.24C10.0867 4.24 10.5533 4.31333 10.9 4.46C11.26 4.59333 11.5133 4.81333 11.66 5.12C11.8067 5.42667 11.88 5.84667 11.88 6.38C11.88 6.52667 11.86 6.69333 11.82 6.88C11.7933 7.06667 11.7467 7.24667 11.68 7.42C11.2 7.32667 10.7533 7.26 10.34 7.22C9.92667 7.18 9.46 7.16 8.94 7.16C8.7 7.16 8.48667 7.16667 8.3 7.18C8.12667 7.19333 7.97333 7.20667 7.84 7.22C7.84 7.48667 7.83333 7.77333 7.82 8.08C7.82 8.38667 7.80667 8.71333 7.78 9.06C7.71333 9.86 7.52 10.4267 7.2 10.76C6.89333 11.0933 6.38 11.2667 5.66 11.28Z" fill="#292D32"/>
</svg>
