<svg width="25" height="25" viewBox="0 0 25 25" fill="none" xmlns="http://www.w3.org/2000/svg">
<path d="M8.72322 22.684L8.27322 19.284C8.37322 19.3173 8.36922 19.309 8.26122 19.259C8.15255 19.209 7.95655 19.1173 7.67322 18.984L4.54822 20.309L1.17322 14.409L3.89822 12.359V11.759L1.17322 9.70898L4.54822 3.88398L7.77322 5.20898C7.83988 5.15898 7.90655 5.11332 7.97322 5.07198C8.03988 5.02998 8.13988 4.98398 8.27322 4.93398L8.72322 1.45898H15.3982L15.8482 4.90898C15.9482 4.94232 16.0399 4.98398 16.1232 5.03398C16.2066 5.08398 16.2899 5.14232 16.3732 5.20898L19.5732 3.88398L22.9482 9.70898L20.1232 11.809V12.084C20.1232 12.1507 20.1189 12.2047 20.1102 12.246C20.1022 12.288 20.0982 12.3257 20.0982 12.359L22.8982 14.409L19.4982 20.309L16.3232 18.959C16.2732 19.009 16.2192 19.0546 16.1612 19.096C16.1026 19.138 15.9982 19.2007 15.8482 19.284L15.3982 22.684H8.72322ZM11.9732 15.459C12.9066 15.459 13.7022 15.1297 14.3602 14.471C15.0189 13.813 15.3482 13.0173 15.3482 12.084C15.3482 11.1507 15.0189 10.355 14.3602 9.69698C13.7022 9.03832 12.9066 8.70898 11.9732 8.70898C11.0399 8.70898 10.2442 9.03832 9.58622 9.69698C8.92755 10.355 8.59822 11.1507 8.59822 12.084C8.59822 13.0173 8.92755 13.813 9.58622 14.471C10.2442 15.1297 11.0399 15.459 11.9732 15.459Z" fill="#5B8C51"/>
</svg>
